<?xml version="1.0" encoding="UTF-8"?>
<svg xmlns="http://www.w3.org/2000/svg" xmlns:xlink="http://www.w3.org/1999/xlink" width="127px" height="42px" viewBox="0 0 126 42" version="1.1">
<g id="surface1">
<path style="fill-rule:nonzero;fill:rgb(0.784314%,97.254902%,0.784314%);fill-opacity:1;stroke-width:0.131833;stroke-linecap:round;stroke-linejoin:round;stroke:rgb(0%,0%,0%);stroke-opacity:1;stroke-miterlimit:4;" d="M 53.90625 31.863839 L 54.21782 32.803199 L 59.21689 42.020089 L 60.46782 43.112909 L 61.87221 43.736049 L 63.74628 44.047619 L 72.335379 43.894159 L 72.335379 33.114769 L 57.03125 32.803199 L 55.78032 32.491629 L 54.21782 31.710379 Z M 71.40067 2.18564 L 71.40067 2.49721 L 72.96317 3.74814 L 74.679129 5.93378 L 79.208519 14.21596 L 79.208519 14.68099 L 77.646019 15.77381 L 77.646019 16.09003 L 77.96224 16.24349 L 86.704799 16.09003 L 91.080729 8.90532 L 91.080729 8.5891 L 90.611049 8.43564 L 89.206659 9.21689 L 88.736979 9.05878 L 85.770089 3.74814 L 85.146949 3.125 L 83.426339 2.18564 Z M 80.301339 45.768229 L 80.771019 46.079799 L 81.082589 45.921689 L 81.240699 44.359189 L 81.710379 44.047619 L 86.862909 44.047619 L 88.578869 43.577939 L 89.987909 42.643229 L 92.015439 39.364769 L 95.768229 32.333519 L 95.768229 31.863839 L 95.452009 31.710379 L 93.736049 32.486979 L 91.080729 32.96131 L 81.710379 32.96131 L 81.240699 32.645089 L 81.240699 31.394159 L 80.771019 31.082589 L 80.459449 31.240699 L 76.553199 38.267299 L 76.553199 38.895089 Z M 53.43657 17.49442 L 53.43657 17.80599 L 55.31064 19.36849 L 55.31064 19.68006 L 52.03218 25.93006 L 52.03218 27.334449 L 52.49721 28.427269 L 54.37593 30.459449 L 55.62221 31.082589 L 57.49628 31.552269 L 61.09096 31.552269 L 64.99721 25.14881 L 65.46224 24.990699 L 66.71317 25.771949 L 67.18285 25.61849 L 62.96503 17.49442 L 62.49535 17.18285 L 54.52939 17.18285 Z M 53.43657 17.49442 " transform="matrix(0.84,0,0,0.84,0,0)"/>
<path style="fill-rule:nonzero;fill:rgb(0.784314%,97.254902%,0.784314%);fill-opacity:1;stroke-width:0.131833;stroke-linecap:round;stroke-linejoin:round;stroke:rgb(0%,0%,0%);stroke-opacity:1;stroke-miterlimit:4;" d="M 67.02474 2.50186 L 65.62035 3.125 L 64.99721 3.74814 L 60.30971 10.93285 L 60.1516 11.56064 L 69.36849 17.02474 L 69.99628 16.55506 L 74.209449 9.68192 L 74.521019 8.43564 L 72.49349 5.31064 L 71.0891 3.90625 L 69.36849 2.81343 L 68.43378 2.49721 Z M 93.266369 17.33631 L 84.054129 22.96317 L 88.425409 31.394159 L 88.736979 31.552269 L 92.173549 31.394159 L 94.828869 30.61756 L 96.549479 29.520089 L 97.642299 27.96224 L 97.642299 25.460379 L 94.205729 18.58724 Z M 93.266369 17.33631 " transform="matrix(0.84,0,0,0.84,0,0)"/>
</g>
</svg>
